<svg id='Color_Brush_Paint_24' width='24' height='24' viewBox='0 0 24 24' xmlns='http://www.w3.org/2000/svg' xmlns:xlink='http://www.w3.org/1999/xlink'><rect width='24' height='24' stroke='none' fill='#000000' opacity='0'/>


<g transform="matrix(0.83 0 0 0.83 12 12)" >
<g style="" >
<g transform="matrix(1 0 0 1 6.8 -4.25)" >
<path style="stroke: rgb(0,0,0); stroke-width: 1; stroke-dasharray: none; stroke-linecap: round; stroke-dashoffset: 0; stroke-linejoin: round; stroke-miterlimit: 4; fill: none; fill-rule: nonzero; opacity: 1;" transform=" translate(-18.8, -7.75)" d="M 16.828 13.555 L 23.284 3.7330000000000005 C 23.614847005239085 3.213152404475998 23.481510457296384 2.525349375063913 22.98037639268037 2.1667884838206084 C 22.47924232806436 1.8082275925773037 21.78521878190343 1.9040553529598288 21.4 2.385 L 14.139999999999999 11.759" stroke-linecap="round" />
</g>
<g transform="matrix(1 0 0 1 -5.35 4.43)" >
<path style="stroke: rgb(0,0,0); stroke-width: 1; stroke-dasharray: none; stroke-linecap: round; stroke-dashoffset: 0; stroke-linejoin: round; stroke-miterlimit: 4; fill: none; fill-rule: nonzero; opacity: 1;" transform=" translate(-6.65, -16.43)" d="M 8.7 15.62 C 6.405999999999999 15.072999999999999 4.299999999999999 14.005999999999998 3.709999999999999 12.033 C 3.48354728794252 11.27610965094592 2.7900148629998265 10.755351970462634 1.9999999999999982 10.749 C 1.5676119137381292 10.748632333926551 1.1562711509819592 10.935613019817778 0.8722481849770418 11.261635330559411 C 0.5882252189721244 11.587657641301044 0.45938004584533076 12.020741837922333 0.5189999999999999 12.449 C 1.1391621199150186 17.274245765290125 4.805668683352698 21.146086397102444 9.589999999999993 22.028 C 10.799960127918865 22.293818648546377 12.053171069790254 21.823864545344605 12.79 20.828" stroke-linecap="round" />
</g>
<g transform="matrix(1 0 0 1 1.02 3.43)" >
<path style="stroke: rgb(0,0,0); stroke-width: 1; stroke-dasharray: none; stroke-linecap: round; stroke-dashoffset: 0; stroke-linejoin: round; stroke-miterlimit: 4; fill: none; fill-rule: nonzero; opacity: 1;" transform=" translate(-13.02, -15.43)" d="M 9.359 17.713 C 9.12984332983252 17.81095546200075 8.986948120148062 18.0423320634666 9.001976981491822 18.291093365410326 C 9.017005842835582 18.53985466735405 9.18671719196355 18.752345209811395 9.426 18.822000000000003 C 13.358 19.953000000000003 16.391 17.405 16.94 15.440000000000003 C 17.21866716012837 14.441978574591548 16.94372814281256 13.371101587104032 16.218749814951863 12.630758034528172 C 15.49377148709117 11.890414481952313 14.428895302940926 11.593080161695578 13.425249814951863 11.850758034528173 C 12.4216043269628 12.108435907360768 11.63166716012837 12.881978574591548 11.353000000000002 13.880000000000003 C 10.848 15.688 11.09 16.979 9.359 17.713 Z" stroke-linecap="round" />
</g>
</g>
</g>
</svg>